<svg width="254" height="254" xmlns="http://www.w3.org/2000/svg" xmlns:xlink="http://www.w3.org/1999/xlink" overflow="hidden"><defs><clipPath id="clip0"><rect x="-100" y="1176" width="254" height="254"/></clipPath></defs><g clip-path="url(#clip0)" transform="translate(100 -1176)"><path d="M115.172 1319.4C113.336 1316.35 109.64 1314.96 106.248 1316.05 89.0289 1320.85 50.6061 1333.67 29.6908 1357.09 29.667 1357.12 29.6458 1357.11 29.6458 1357.08L29.6458 1313.58 30.7174 1313.58C35.9736 1313.65 41.219 1313.09 46.3437 1311.92 60.8958 1308.42 71.3839 1300.6 77.4984 1288.67 93.5798 1257.29 73.9979 1208.63 73.1566 1206.57L72.9925 1206.24C71.6564 1203.89 69.1449 1202.47 66.4467 1202.52 63.9088 1202.57 61.6054 1204.02 60.4539 1206.28L49.3414 1226.12 49.3202 1226.12 48.1085 1228.34 46.8781 1230.53 33.2971 1206.31C31.5183 1202.83 27.2558 1201.46 23.7768 1203.23 22.4645 1203.91 21.3943 1204.97 20.7161 1206.28L7.12979 1230.53-6.48038 1206.24C-7.81864 1203.9-10.3272 1202.47-13.0235 1202.52-15.6702 1202.6-18.0451 1204.17-19.1619 1206.57-20.0059 1208.63-39.6089 1257.35-23.5619 1288.73-17.4765 1300.61-7.06511 1308.41 7.39437 1311.9 12.5363 1313.08 17.8007 1313.65 23.0762 1313.58L24.3542 1313.58 24.3542 1357.61C24.3542 1357.65 24.333 1357.65 24.3092 1357.63 3.52616 1333.88-35.3623 1320.89-52.6713 1316.09-56.0673 1314.98-59.778 1316.35-61.6354 1319.4-63.5756 1322.5-63.1592 1326.53-60.6247 1329.16-45.8755 1344.38-35.6737 1363.42-31.1713 1384.13-28.7191 1396.83-17.6768 1406.04-4.75 1406.19L58.2737 1406.19C71.1693 1406.05 82.1979 1396.88 84.6792 1384.23 89.1818 1363.47 99.4027 1344.39 114.186 1329.14 116.705 1326.5 117.112 1322.49 115.172 1319.4ZM52.7149 1230.92 65.1185 1208.77C65.3857 1208.2 65.9591 1207.82 66.5949 1207.81 67.3003 1207.81 67.9564 1208.17 68.3359 1208.77 69.6588 1212.14 87.2747 1258.01 72.7861 1286.27 67.4045 1296.76 58.0938 1303.66 45.1081 1306.77 40.3879 1307.84 35.5574 1308.35 30.7174 1308.29L29.8496 1308.29 29.8496 1289.64C29.8493 1278.55 32.6369 1267.64 37.9564 1257.91ZM25.3516 1208.83C25.6594 1208.19 26.2933 1207.78 27 1207.75 27.7181 1207.78 28.3584 1208.21 28.6642 1208.86L43.8857 1236.03 33.3024 1255.38C30.6256 1260.3 28.537 1265.51 27.0794 1270.92 25.6371 1265.8 23.6271 1260.86 21.0866 1256.18L10.0931 1236.06ZM8.64321 1306.76C-4.24994 1303.65-13.4998 1296.77-18.847 1286.33-33.7907 1257.12-14.4602 1209.07-14.3491 1208.77-14.0805 1208.2-13.5067 1207.82-12.8701 1207.81L-12.8171 1207.81C-12.0864 1207.83-11.4188 1208.23-11.0656 1208.87L0.012495 1228.65 16.4484 1258.71C21.7676 1268.44 24.5552 1279.35 24.5552 1290.44L24.5552 1308.29 23.0736 1308.29C18.2198 1308.36 13.3755 1307.84 8.64321 1306.76ZM-4.75 1400.9C-15.141 1400.79-24.0175 1393.37-25.9722 1383.17-30.667 1361.46-41.3424 1341.5-56.7909 1325.54-57.6836 1324.66-57.8347 1323.27-57.1534 1322.21-56.7195 1321.47-55.9302 1321.02-55.0764 1321.02-54.7597 1321.02-54.4448 1321.07-54.1424 1321.16-36.2963 1326.13 5.04487 1339.95 23.5498 1365.11 22.8434 1366.21 22.1634 1367.31 21.539 1368.44 15.6229 1379.67 12.3685 1395.16 11.3076 1400.9ZM110.344 1325.52C94.8614 1341.5 84.1677 1361.51 79.4748 1383.26 77.4923 1393.43 68.6319 1400.8 58.2737 1400.9L16.6998 1400.9C18.554 1390.55 21.7499 1380.48 26.2062 1370.96 42.1818 1342.03 88.505 1326.51 107.73 1321.15 108.843 1320.74 110.089 1321.18 110.69 1322.2 111.371 1323.25 111.227 1324.63 110.344 1325.52Z" fill="#FFFFFF" fill-rule="nonzero" fill-opacity="1"/></g></svg>