<svg width="316" height="314" xmlns="http://www.w3.org/2000/svg" xmlns:xlink="http://www.w3.org/1999/xlink" overflow="hidden"><defs><clipPath id="clip0"><rect x="-160" y="1256" width="316" height="314"/></clipPath><clipPath id="clip1"><rect x="-159" y="1257" width="314" height="313"/></clipPath><clipPath id="clip2"><rect x="-159" y="1257" width="314" height="313"/></clipPath><clipPath id="clip3"><rect x="-159" y="1257" width="314" height="313"/></clipPath></defs><g clip-path="url(#clip0)" transform="translate(160 -1256)"><g clip-path="url(#clip1)"><g clip-path="url(#clip2)"><g clip-path="url(#clip3)"><path d="M156.5 97.8125C124.088 97.8125 97.8125 124.088 97.8125 156.5 97.8125 188.912 124.088 215.188 156.5 215.188 188.912 215.188 215.188 188.912 215.188 156.5 215.15 124.104 188.896 97.8503 156.5 97.8125ZM156.5 208.667C127.689 208.667 104.333 185.311 104.333 156.5 104.333 127.689 127.689 104.333 156.5 104.333 185.311 104.333 208.667 127.689 208.667 156.5 208.632 185.297 185.297 208.632 156.5 208.667Z" fill="#FFFFFF" fill-rule="nonzero" fill-opacity="1" transform="matrix(1.00319 0 0 1 -159 1257)"/><path d="M153.24 228.229 159.76 228.229 159.76 270.615 153.24 270.615Z" fill="#FFFFFF" fill-rule="nonzero" fill-opacity="1" transform="matrix(1.00319 0 0 1 -159 1257)"/><path d="M153.24 42.3854 159.76 42.3854 159.76 84.7708 153.24 84.7708Z" fill="#FFFFFF" fill-rule="nonzero" fill-opacity="1" transform="matrix(1.00319 0 0 1 -159 1257)"/><path d="M42.3854 153.24 84.7708 153.24 84.7708 159.76 42.3854 159.76Z" fill="#FFFFFF" fill-rule="nonzero" fill-opacity="1" transform="matrix(1.00319 0 0 1 -159 1257)"/><path d="M228.229 153.24 270.615 153.24 270.615 159.76 228.229 159.76Z" fill="#FFFFFF" fill-rule="nonzero" fill-opacity="1" transform="matrix(1.00319 0 0 1 -159 1257)"/><path d="M69.7143 219.296 112.167 219.296 112.167 225.827 69.7143 225.827Z" fill="#FFFFFF" fill-rule="nonzero" fill-opacity="1" transform="matrix(0.708237 -0.705982 0.708237 0.705982 -289.948 1386.29)"/><path d="M201.332 87.6719 243.785 87.6719 243.785 94.2032 201.332 94.2032Z" fill="#FFFFFF" fill-rule="nonzero" fill-opacity="1" transform="matrix(0.708237 -0.705982 0.708237 0.705982 -158.117 1440.71)"/><path d="M87.6752 69.7111 94.2064 69.7111 94.2064 112.164 87.6752 112.164Z" fill="#FFFFFF" fill-rule="nonzero" fill-opacity="1" transform="matrix(0.708237 -0.705982 0.708237 0.705982 -196.729 1347.8)"/><path d="M219.292 201.335 225.824 201.335 225.824 243.788 219.292 243.788Z" fill="#FFFFFF" fill-rule="nonzero" fill-opacity="1" transform="matrix(0.708237 -0.705982 0.708237 0.705982 -251.336 1479.2)"/></g></g></g></g></svg>