<svg width="361" height="361" xmlns="http://www.w3.org/2000/svg" xmlns:xlink="http://www.w3.org/1999/xlink" overflow="hidden"><defs><clipPath id="clip0"><rect x="212" y="1065" width="361" height="361"/></clipPath><clipPath id="clip1"><rect x="213" y="1066" width="360" height="360"/></clipPath><clipPath id="clip2"><rect x="213" y="1066" width="360" height="360"/></clipPath><clipPath id="clip3"><rect x="213" y="1066" width="360" height="360"/></clipPath></defs><g clip-path="url(#clip0)" transform="translate(-212 -1065)"><g clip-path="url(#clip1)"><g clip-path="url(#clip2)"><g clip-path="url(#clip3)"><path d="M471 1313.12 558.75 1257.25 529.088 1247.21C527.211 1246.54 526.235 1244.47 526.906 1242.6 526.922 1242.55 526.94 1242.51 526.958 1242.46L548.25 1192.44 494.58 1204C493.659 1204.2 492.697 1204.02 491.906 1203.51 491.034 1202.92 490.454 1201.99 490.309 1200.95L486.638 1169.71 446.625 1214.09C446.32 1214.43 445.892 1214.63 445.436 1214.65 444.978 1214.68 444.529 1214.52 444.191 1214.21 443.751 1213.81 443.548 1213.21 443.655 1212.62L461.325 1117.23 425.966 1140.82C424.336 1141.91 422.137 1141.47 421.046 1139.84 420.934 1139.67 420.834 1139.48 420.746 1139.29L393.375 1076.77 366 1139.29C365.207 1141.08 363.116 1141.9 361.32 1141.12 361.134 1141.03 360.954 1140.94 360.784 1140.82L325.406 1117.24 343.125 1212.62C343.298 1213.56 342.68 1214.46 341.745 1214.63 341.744 1214.63 341.743 1214.63 341.741 1214.63 341.153 1214.75 340.548 1214.54 340.151 1214.09L300.128 1169.7 296.452 1200.94C296.176 1202.92 294.347 1204.3 292.368 1204.02 292.306 1204.01 292.246 1204 292.185 1203.99L238.5 1192.44 259.807 1242.46C260.176 1243.32 260.185 1244.3 259.834 1245.17 259.431 1246.12 258.647 1246.86 257.674 1247.21L228 1257.25 315.791 1313.12C317.232 1314.04 317.816 1315.85 317.182 1317.43L301.103 1357.63 389.625 1337.23 389.625 1397.38C389.625 1399.45 391.304 1401.13 393.375 1401.13 395.446 1401.13 397.125 1399.45 397.125 1397.38L397.125 1305.62 466.751 1258.21C468.465 1257.04 468.909 1254.71 467.743 1252.99 466.577 1251.28 464.242 1250.83 462.529 1252L397.125 1296.54 397.125 1176.13C397.125 1174.06 395.446 1172.38 393.375 1172.38 391.304 1172.38 389.625 1174.06 389.625 1176.13L389.625 1296.54 324.251 1252C322.539 1250.83 320.207 1251.28 319.041 1252.99 317.875 1254.7 318.317 1257.03 320.029 1258.2L389.625 1305.62 389.625 1329.54 313.395 1347.11 324.146 1320.23C326.115 1315.3 324.3 1309.66 319.823 1306.81L245.25 1259.33 260.104 1254.31C260.366 1254.22 260.621 1254.12 260.876 1254.01 266.485 1251.61 269.097 1245.13 266.715 1239.52L251.077 1202.82 290.64 1211.33C290.974 1211.4 291.307 1211.45 291.656 1211.5 297.714 1212.21 303.202 1207.88 303.915 1201.82 303.915 1201.82 303.915 1201.82 303.915 1201.81L305.655 1187.02 334.575 1219.11C336.731 1221.47 339.949 1222.57 343.099 1222 348.106 1221.07 351.415 1216.27 350.494 1211.26L336.056 1133.32 356.681 1147.06C357.219 1147.42 357.787 1147.73 358.38 1147.99 363.968 1150.43 370.474 1147.88 372.926 1142.3L393.375 1095.48 413.869 1142.31C416.302 1147.89 422.803 1150.45 428.389 1148.01 428.995 1147.75 429.576 1147.43 430.125 1147.06L450.709 1133.33 436.283 1211.26C435.712 1214.41 436.805 1217.63 439.174 1219.78 442.953 1223.19 448.781 1222.89 452.192 1219.11 452.194 1219.11 452.196 1219.11 452.198 1219.11L481.125 1187.02 482.865 1201.82C482.906 1202.16 482.962 1202.5 483.038 1202.85 484.323 1208.81 490.198 1212.61 496.163 1211.32L535.699 1202.82 520.069 1239.51C519.953 1239.77 519.85 1240.04 519.761 1240.31 517.817 1246.09 520.915 1252.35 526.688 1254.31L541.526 1259.33 466.954 1306.81C462.48 1309.66 460.665 1315.3 462.63 1320.23L473.385 1347.11 409.448 1332.35C407.429 1331.89 405.415 1333.14 404.949 1335.16 404.483 1337.18 405.742 1339.19 407.76 1339.66L485.674 1357.66 469.598 1317.45C468.961 1315.86 469.551 1314.04 471 1313.12Z" fill="#FFFFFF" fill-rule="nonzero" fill-opacity="1"/></g></g></g></g></svg>