<svg width="425" height="427" xmlns="http://www.w3.org/2000/svg" xmlns:xlink="http://www.w3.org/1999/xlink" overflow="hidden"><defs><clipPath id="clip0"><rect x="148" y="1145" width="425" height="427"/></clipPath><clipPath id="clip1"><rect x="148" y="1146" width="425" height="426"/></clipPath><clipPath id="clip2"><rect x="148" y="1146" width="425" height="426"/></clipPath><clipPath id="clip3"><rect x="148" y="1146" width="425" height="426"/></clipPath></defs><g clip-path="url(#clip0)" transform="translate(-148 -1145)"><g clip-path="url(#clip1)"><g clip-path="url(#clip2)"><g clip-path="url(#clip3)"><path d="M339.23 139.776C338.012 137.657 335.306 136.926 333.187 138.143L304.057 154.859 311.082 128.917C311.722 126.556 310.326 124.124 307.966 123.485 305.605 122.845 303.173 124.241 302.534 126.601L293.197 161.093 269.503 174.693 283.068 124.578C283.681 122.211 282.26 119.795 279.893 119.182 277.565 118.578 275.18 119.944 274.523 122.258L258.643 180.926 236.884 193.41C231.976 187.143 224.841 183.008 216.963 181.865L216.963 156.781 259.936 113.807C261.665 112.077 261.664 109.274 259.934 107.545 258.204 105.816 255.401 105.817 253.672 107.547L216.958 144.261 216.958 116.937 242.223 91.6716C243.922 89.9127 243.873 87.1104 242.115 85.4117 240.399 83.7547 237.679 83.7547 235.964 85.4117L216.958 104.417 216.958 70.8333C216.958 68.3883 214.976 66.4062 212.531 66.4062 210.086 66.4062 208.104 68.3883 208.104 70.8333L208.104 104.417 189.098 85.4117C187.34 83.7131 184.537 83.7617 182.839 85.5206 181.182 87.2361 181.182 89.9561 182.839 91.6716L208.104 116.937 208.104 144.261 171.39 107.547C169.631 105.848 166.829 105.897 165.13 107.656 163.473 109.372 163.473 112.092 165.13 113.807L208.104 156.781 208.104 181.865C200.348 182.983 193.304 187.001 188.395 193.109L166.799 180.364 151.628 121.51C151.016 119.142 148.601 117.718 146.233 118.329 143.865 118.941 142.441 121.356 143.052 123.724L156.006 173.984 132.476 160.097 123.564 125.508C122.953 123.14 120.538 121.716 118.17 122.327 115.802 122.938 114.378 125.353 114.989 127.721L121.696 153.744 92.774 136.673C90.6614 135.43 87.9409 136.134 86.6978 138.247 85.4547 140.359 86.159 143.08 88.2716 144.323L117.194 161.394 91.1669 168.096C88.7976 168.7 87.3667 171.111 87.971 173.48 88.4717 175.444 90.2421 176.817 92.2693 176.813 92.6429 176.814 93.0148 176.766 93.376 176.672L127.974 167.755 151.508 181.643 101.225 194.575C98.8559 195.179 97.4251 197.589 98.0294 199.959 98.5301 201.922 100.3 203.296 102.328 203.292 102.701 203.292 103.073 203.246 103.434 203.154L162.288 187.987 183.87 200.728C180.8 208.144 180.752 216.467 183.737 223.917L161.996 236.406 103.328 220.517C100.995 219.784 98.5106 221.081 97.7775 223.414 97.0443 225.746 98.341 228.231 100.673 228.964 100.787 229 100.901 229.031 101.017 229.057L151.136 242.626 127.438 256.231 92.9688 246.898C90.6361 246.165 88.1512 247.462 87.4181 249.795 86.685 252.127 87.9816 254.612 90.3138 255.345 90.4272 255.381 90.5418 255.412 90.6578 255.438L116.596 262.464 87.4703 279.181C85.3506 280.403 84.6233 283.113 85.8456 285.233 87.0679 287.352 89.7777 288.08 91.8974 286.857L121.028 270.141 114.006 296.083C113.368 298.437 114.754 300.864 117.105 301.511 117.481 301.618 117.87 301.672 118.261 301.67 120.26 301.669 122.011 300.329 122.533 298.399L131.87 263.907 155.568 250.307 141.972 300.422C141.332 302.782 142.726 305.216 145.087 305.856 147.447 306.497 149.88 305.102 150.521 302.742L166.401 244.074 188.16 231.59C193.068 237.857 200.203 241.993 208.082 243.135L208.082 268.219 165.13 311.193C163.432 312.952 163.48 315.754 165.239 317.453 166.955 319.11 169.675 319.11 171.39 317.453L208.104 280.739 208.104 308.063 182.839 333.328C181.14 335.087 181.189 337.89 182.947 339.588 184.663 341.245 187.383 341.245 189.098 339.588L208.104 320.583 208.104 354.167C208.104 356.612 210.086 358.594 212.531 358.594 214.976 358.594 216.958 356.612 216.958 354.167L216.958 320.583 235.964 339.588C237.662 341.347 240.465 341.396 242.223 339.697 243.982 337.999 244.031 335.196 242.332 333.437 242.296 333.4 242.26 333.364 242.223 333.328L216.958 308.063 216.958 280.739 253.672 317.453C255.371 319.212 258.173 319.26 259.932 317.562 261.691 315.863 261.739 313.06 260.041 311.302 260.005 311.265 259.969 311.228 259.932 311.193L216.958 268.219 216.958 243.135C224.714 242.017 231.758 237.999 236.667 231.891L258.263 244.636 273.417 303.49C273.919 305.444 275.68 306.811 277.698 306.815 278.071 306.815 278.443 306.768 278.804 306.673 281.17 306.063 282.595 303.652 281.988 301.285L269.034 251.016 292.564 264.903 301.484 299.492C301.989 301.446 303.751 302.812 305.77 302.813 306.143 302.814 306.515 302.768 306.877 302.675 309.245 302.066 310.67 299.653 310.061 297.285 310.061 297.283 310.06 297.281 310.06 297.279L303.353 271.256 332.275 288.327C334.381 289.569 337.095 288.869 338.338 286.762 339.58 284.656 338.879 281.941 336.773 280.699L307.855 263.628 333.882 256.926C336.25 256.314 337.674 253.899 337.063 251.531 336.451 249.163 334.036 247.739 331.668 248.351L297.057 257.267 273.527 243.379 323.806 230.425C326.175 229.814 327.6 227.398 326.989 225.029 326.377 222.659 323.962 221.234 321.592 221.846L262.752 237.013 241.174 224.272C244.246 216.856 244.292 208.532 241.303 201.083L263.044 188.594 321.712 204.469C322.089 204.576 322.479 204.63 322.872 204.629 325.317 204.626 327.296 202.641 327.293 200.196 327.291 198.2 325.953 196.453 324.027 195.929L273.904 182.369 297.606 168.769 332.098 178.102C332.474 178.208 332.862 178.262 333.253 178.261 335.698 178.258 337.678 176.273 337.674 173.829 337.672 171.832 336.334 170.085 334.409 169.562L308.466 162.536 337.592 145.819C339.713 144.603 340.446 141.898 339.23 139.777 339.23 139.776 339.23 139.776 339.23 139.776ZM212.522 234.635C200.297 234.635 190.387 224.725 190.387 212.5 190.387 200.275 200.297 190.365 212.522 190.365 224.747 190.365 234.658 200.275 234.658 212.5 234.643 224.719 224.741 234.621 212.522 234.635Z" fill="#FFFFFF" fill-rule="nonzero" fill-opacity="1" transform="matrix(1 0 0 1.00235 148 1146)"/></g></g></g></g></svg>